<svg id="Layer_1" enable-background="new 0 0 64 64" height="512" viewBox="0 0 64 64" width="512" xmlns="http://www.w3.org/2000/svg"><path d="m56 44.6c0-4.4-2.6-8.4-6.7-10.1l-6.8-2.9c.7-1.2 1.2-2.5 1.4-3.9l2.5-1.2c1-.5 1.7-1.5 1.7-2.7v-1.8c0-1.7-1.3-3-3-3h-1v-.8l2.1-5.6c.6-1.7.6-3.6-.1-5.2l-2.5-5.8-3.3 1.6c-1 .5-2 .7-3.1.7h-14.5c-.7 0-1.3.2-1.9.7l-1.3 1c-2.2 1.8-2.9 4.8-1.6 7.4l2.1 4.3c0 .2-.1.5-.1.7v1h-1c-1.7 0-3 1.3-3 3v1.8c0 1.1.6 2.2 1.7 2.7l2.5 1.2c.2 1.4.7 2.7 1.4 3.9l-6.8 2.9c-4 1.7-6.7 5.7-6.7 10.1v17.4h48zm-36-19.2-1.4-.7c-.3-.2-.6-.5-.6-.9v-1.8c0-.6.4-1 1-1h1zm25-4.4c.6 0 1 .4 1 1v1.8c0 .4-.2.7-.6.9l-1.4.7v-4.4zm-24-6.2-1.3-2.6c-.8-1.7-.4-3.7 1.1-4.9l1.3-1c.2-.2.4-.3.6-.3h14.4c1.4 0 2.8-.3 4-1l1.4-.7 1.6 3.8c.5 1.2.5 2.5.1 3.7l-.8 2.2h-9.1c-1.9 0-3.8-.6-5.4-1.8l-1.8-1.4-3.8 1.9c-.9.5-1.7 1.2-2.3 2.1zm16.3 19.2-2.4 1.3c-1.8 1-4 1-5.7 0l-2.5-1.3c-2.9-1.6-4.7-4.6-4.7-7.9v-3.1h2.1c.5 1.8 2 3 3.9 3h.4c1.3 0 2.6-.7 3.3-1.8l.3-.4.3.4c.7 1.1 2 1.8 3.3 1.8h.4c1.8 0 3.4-1.2 3.9-3h2.1v3.1c0 3.3-1.8 6.3-4.7 7.9zm2.5.7c-.9 4.3-5.2 7.1-9.5 6.2-3.1-.7-5.5-3.1-6.2-6.2.5.4 1 .7 1.6 1.1l2.4 1.3c2.4 1.3 5.3 1.3 7.7 0l2.4-1.3c.6-.4 1.1-.7 1.6-1.1zm-13.8-12.7c0-1.1.9-2 2-2h.4c.7 0 1.3.3 1.7.9l.7 1.1-.7 1.1c-.4.6-1 .9-1.7.9h-.4c-1.1 0-2-.9-2-2zm7.2 0 .7-1.1c.4-.6 1-.9 1.7-.9h.4c1.1 0 2 .9 2 2s-.9 2-2 2h-.4c-.7 0-1.3-.3-1.7-.9zm6.7-1c-.5-1.8-2-3-3.9-3h-.4c-1.3 0-2.6.7-3.3 1.8l-.3.4-.3-.4c-.7-1.1-2-1.8-3.3-1.8h-.4c-1.8 0-3.4 1.2-3.9 3h-2.1v-2.9c0-1.5.9-2.9 2.2-3.6l2.7-1.3.8.6c1.9 1.4 4.2 2.2 6.6 2.2h7.7v5zm5.1 39h-26v-12c0-.6.4-1 1-1h24c.6 0 1 .4 1 1zm9 0h-7v-12c0-1.7-1.3-3-3-3h-24c-1.7 0-3 1.3-3 3v12h-7v-15.4c0-3.6 2.1-6.9 5.5-8.3l6.6-2.8c.3 5.5 5 9.8 10.5 9.5 5.1-.3 9.2-4.4 9.5-9.5l6.6 2.8c3.3 1.4 5.5 4.7 5.5 8.3v15.4z"/><path d="m27.3 50.3-3.7 3.7 3.7 3.7 1.4-1.4-2.3-2.3 2.3-2.3z"/><path d="m28.8 53h6.3v2h-6.3z" transform="matrix(.316 -.949 .949 .316 -29.35 67.272)"/><path d="m35.3 51.7 2.3 2.3-2.3 2.3 1.4 1.4 3.7-3.7-3.7-3.7z"/></svg>