<?xml version="1.0" encoding="iso-8859-1"?>
<!-- Generator: Adobe Illustrator 19.0.0, SVG Export Plug-In . SVG Version: 6.00 Build 0)  -->
<svg version="1.1" id="Capa_1" xmlns="http://www.w3.org/2000/svg" xmlns:xlink="http://www.w3.org/1999/xlink" x="0px" y="0px"
	 viewBox="0 0 512 512" style="enable-background:new 0 0 512 512;" xml:space="preserve">
<g>
	<g>
		<g>
			<path d="M511.116,234.437l-54.737-21.911c-2.71-1.087-4.739-3.402-5.46-6.232c-4.757-18.583-12.163-36.384-21.991-52.857
				c-1.494-2.513-1.698-5.588-0.549-8.276l23.259-54.313c-4.487-5.312-9.388-10.634-14.62-15.866
				c-5.196-5.196-10.518-10.098-15.866-14.616l-54.313,23.25c-2.686,1.159-5.766,0.956-8.277-0.545
				c-16.472-9.829-34.274-17.236-52.857-21.991c-2.827-0.721-5.141-2.748-6.228-5.455l-21.92-54.741
				c-14.348-1.179-28.768-1.179-43.116,0l-21.92,54.74c-1.087,2.708-3.4,4.734-6.228,5.455
				c-18.583,4.755-36.385,12.162-52.857,21.991c-2.511,1.501-5.591,1.703-8.277,0.545l-54.313-23.25
				c-5.349,4.518-10.67,9.42-15.862,14.616c-5.237,5.232-10.138,10.554-14.625,15.866l23.259,54.313
				c1.149,2.688,0.945,5.764-0.549,8.277c-9.828,16.473-17.235,34.274-21.991,52.857c-0.721,2.83-2.749,5.145-5.46,6.232
				l-54.737,21.91C0.299,241.384,0,248.607,0,256c0,7.393,0.299,14.616,0.884,21.563l54.737,21.911
				c2.71,1.087,4.739,3.402,5.46,6.232c4.757,18.583,12.163,36.384,21.991,52.857c1.494,2.513,1.698,5.588,0.549,8.277
				l-23.259,54.313c4.487,5.312,9.388,10.634,14.621,15.866c5.196,5.196,10.518,10.098,15.866,14.616l54.313-23.25
				c2.686-1.159,5.766-0.956,8.277,0.545c16.472,9.829,34.274,17.236,52.857,21.991c2.827,0.721,5.141,2.748,6.228,5.455
				l21.92,54.741c14.348,1.179,28.768,1.179,43.116,0l21.92-54.741c1.087-2.708,3.4-4.734,6.228-5.455
				c18.583-4.755,36.385-12.162,52.857-21.991c2.511-1.501,5.591-1.704,8.277-0.545l54.313,23.25
				c5.349-4.518,10.67-9.42,15.862-14.616c5.237-5.232,10.138-10.554,14.625-15.866l-23.259-54.313
				c-1.149-2.688-0.945-5.764,0.549-8.277c9.828-16.473,17.235-34.274,21.991-52.857c0.721-2.83,2.749-5.145,5.46-6.232
				l54.737-21.911C511.701,270.616,512,263.393,512,256C512,248.607,511.701,241.384,511.116,234.437z M256,429.714
				c-95.94,0-173.714-77.775-173.714-173.714S160.06,82.285,256,82.285S429.714,160.06,429.714,256
				C429.605,351.894,351.895,429.605,256,429.714z"/>
			<path d="M256,100.571c-85.841,0-155.429,69.588-155.429,155.429S170.159,411.428,256,411.428S411.429,341.841,411.429,256
				C411.333,170.199,341.801,100.667,256,100.571z M210.039,304.112c-0.841,3.176-3.322,5.657-6.498,6.498
				c-3.176,0.841-6.56-0.088-8.862-2.432l-45.714-45.714c-1.715-1.714-2.679-4.039-2.679-6.464c0-2.425,0.964-4.75,2.679-6.464
				l45.714-45.714c3.577-3.532,9.334-3.513,12.888,0.041s3.572,9.311,0.04,12.888L168.357,256l39.25,39.25
				C209.951,297.552,210.88,300.936,210.039,304.112z M283.076,194.509L283.076,194.509l-36.572,128
				c-1.12,3.924-4.705,6.63-8.785,6.634c-0.851-0.002-1.698-0.119-2.518-0.348c-4.852-1.391-7.661-6.449-6.277-11.303l36.571-128
				c0.896-3.14,3.4-5.564,6.568-6.358c3.168-0.794,6.519,0.162,8.79,2.509S283.972,191.368,283.076,194.509z M363.035,262.464
				l-45.714,45.714c-3.579,3.515-9.322,3.489-12.87-0.058c-3.547-3.547-3.573-9.29-0.058-12.87l39.25-39.25l-39.25-39.25
				c-3.532-3.577-3.513-9.334,0.041-12.888c3.554-3.554,9.311-3.572,12.888-0.04l45.714,45.714c1.715,1.714,2.678,4.039,2.678,6.464
				C365.714,258.424,364.75,260.75,363.035,262.464z"/>
		</g>
	</g>
</g>
<g>
</g>
<g>
</g>
<g>
</g>
<g>
</g>
<g>
</g>
<g>
</g>
<g>
</g>
<g>
</g>
<g>
</g>
<g>
</g>
<g>
</g>
<g>
</g>
<g>
</g>
<g>
</g>
<g>
</g>
</svg>
